# xmcd
#
# Track frame offsets: 
#        150
#        15567
#        37575
#        54302
#        76865
#        94822
#        114712
#        131565
#        155127
#        171020
#        187325
#        204285
#
# Disc length: 3023 seconds
#
# Revision: 0
# Processed by: cddbd v1.5.1PL0 Copyright (c) Steve Scherf et al.
# Submitted via: ExactAudioCopy v0.95a5
#
DISCID=940bcd0c
DTITLE=Pop Compilations - British Invasion
DYEAR=1999
DGENRE=BritPop
TTITLE0=One Thing Leads to Another
TTITLE1=Sweet Dreams (Are Made of This)
TTITLE2=Hungry Like the Wolf
TTITLE3=Eyes Without A Face
TTITLE4=Come Dancing
TTITLE5=Do You Really Want to Hurt Me?
TTITLE6=I Ran (So Far Away)
TTITLE7=Lay Your Hands On Me
TTITLE8=I Wanna Be Adored
TTITLE9=Never Gonna Give You Up
TTITLE10=Just Got Lucky
TTITLE11=Time
EXTD=
EXTT0=
EXTT1=
EXTT2=
EXTT3=
EXTT4=
EXTT5=
EXTT6=
EXTT7=
EXTT8=
EXTT9=
EXTT10=
EXTT11=
PLAYORDER=
